<?xml version="1.0" ?><svg data-name="Layer 1" id="Layer_1" viewBox="0 0 100 100" xmlns="http://www.w3.org/2000/svg"><title/><path d="M77.82837,47.82831A3.98336,3.98336,0,0,1,75,49H25a6.00053,6.00053,0,0,0-6,6V91.58575l-8.29291-8.2929a1,1,0,1,0-1.41418,1.41424l10,10a.96155.96155,0,0,0,.67022.28546C19.97607,94.993,19.98694,95,20,95s.02393-.007.03687-.00745a.96155.96155,0,0,0,.67022-.28546l10-10a1,1,0,1,0-1.41418-1.41418v-.00006L21,91.58575V55a4.0003,4.0003,0,0,1,4-4.00006H75A6.00052,6.00052,0,0,0,81,45V8.41418l8.29291,8.29291a1,1,0,0,0,1.41418-1.41418l-10-10a1.0037,1.0037,0,0,0-1.41418,0l-10,10a1,1,0,0,0,1.41418,1.41418L79,8.41418V45A3.983,3.983,0,0,1,77.82837,47.82831Z"/><path d="M94.71051,79.298l-.00342-.00512-10-10a1,1,0,0,0-1.41418,1.41424L91.58588,79H55a4.0003,4.0003,0,0,1-4-4V62a1,1,0,0,0-2,0V75a6.00052,6.00052,0,0,0,6,5.99994H91.58582l-8.29291,8.29291a1,1,0,0,0,1.41418,1.41424l10-10,.00342-.00512a.9976.9976,0,0,0,0-1.404Z"/><path d="M16.70709,9.29291a1,1,0,0,0-1.41418,0l-10,10a1.0037,1.0037,0,0,0,0,1.41418l10,10a1,1,0,0,0,1.41418-1.41418v-.00006L8.41425,21H45a4.0002,4.0002,0,0,1,4,4V38a1,1,0,0,0,2,0V25a6.00053,6.00053,0,0,0-6-6H8.41425l8.29284-8.29291A1,1,0,0,0,16.70709,9.29291Z"/></svg>